<?xml version="1.0" encoding="UTF-8" standalone="no"?>
<!-- Created with Inkscape (http://www.inkscape.org/) -->

<svg
   width="1113.7639"
   height="628.96655"
   viewBox="0 0 1113.7639 628.96655"
   version="1.1"
   id="svg1"
   xml:space="preserve"
   xmlns:inkscape="http://www.inkscape.org/namespaces/inkscape"
   xmlns:sodipodi="http://sodipodi.sourceforge.net/DTD/sodipodi-0.dtd"
   xmlns="http://www.w3.org/2000/svg"
   xmlns:svg="http://www.w3.org/2000/svg"><sodipodi:namedview
     id="namedview1"
     pagecolor="#ffffff"
     bordercolor="#000000"
     borderopacity="0.25"
     inkscape:showpageshadow="2"
     inkscape:pageopacity="0.0"
     inkscape:pagecheckerboard="0"
     inkscape:deskcolor="#d1d1d1"
     inkscape:document-units="px"
     inkscape:zoom="0.51666667"
     inkscape:cx="1920.9677"
     inkscape:cy="1079.0323"
     inkscape:window-width="2560"
     inkscape:window-height="1371"
     inkscape:window-x="0"
     inkscape:window-y="0"
     inkscape:window-maximized="1"
     inkscape:current-layer="layer1"><inkscape:page
       x="0"
       y="0"
       width="1113.7639"
       height="628.96655"
       id="page2"
       margin="0"
       bleed="0" /></sodipodi:namedview><defs
     id="defs1" /><g
     inkscape:label="Layer 1"
     inkscape:groupmode="layer"
     id="layer1"
     transform="translate(-871.49653,-648.83875)"><path
      style="fill:#3f6a7e"
       d="m 1018.0049,1277.1716 c -0.3669,-0.3669 -1.6794,-0.7406 -2.9167,-0.8303 -1.4156,-0.1027 -3.8439,-2.1722 -6.5508,-5.5828 -11.24081,-14.1635 -19.52111,-23.8385 -20.09711,-23.4825 -1.0225,0.6319 -6.6447,-4.5853 -9.8641,-9.1536 -1.6343,-2.319 -3.3284,-3.894 -3.7648,-3.5 -0.4363,0.394 -0.4713,0.1565 -0.078,-0.5277 0.4222,-0.7338 -1.5471,-4.5105 -4.8021,-9.2092 -3.0348,-4.3808 -6.6514,-10.2021 -8.0369,-12.9363 -1.3855,-2.7342 -3.3149,-5.565 -4.2876,-6.2908 -0.9726,-0.7258 -1.9248,-2.2196 -2.1161,-3.3196 -0.5116,-2.9429 -6.5501,-12.3744 -12.2033,-19.0604 -2.7188,-3.2155 -5.1999,-6.6548 -5.5135,-7.643 -0.3137,-0.9882 -1.004,-1.7966 -1.5342,-1.7966 -0.5302,0 -0.8581,-1.5715 -0.7288,-3.4921 0.1879,-2.7899 -0.4455,-4.1944 -3.1503,-6.985 -1.862,-1.9212 -3.6047,-3.2737 -3.8727,-3.0058 -0.2679,0.268 -1.3112,-0.2585 -2.3183,-1.1699 -1.7264,-1.5624 -1.833,-1.5196 -1.863,0.7478 -0.03,2.2754 -0.1072,2.3054 -1.4313,0.5578 -0.7697,-1.016 -1.1958,-2.3783 -0.9467,-3.0273 0.2491,-0.649 -0.4389,-2.9677 -1.5288,-5.1528 -1.4407,-2.8881 -2.0182,-3.4267 -2.1155,-1.9727 -0.074,1.1 -0.7262,-0.973 -1.4503,-4.6066 -0.7241,-3.6335 -2.426,-8.8085 -3.782,-11.5 -1.3561,-2.6914 -3.609,-8.0434 -5.0065,-11.8934 -3.8103,-10.4973 -5.4357,-14.0299 -7.085,-15.3987 -0.8215,-0.6818 -1.8065,-2.6645 -2.189,-4.4062 -0.3826,-1.7416 -1.2593,-3.623 -1.9484,-4.1809 -0.6891,-0.5578 -1.4807,-2.1392 -1.7591,-3.5142 -0.2785,-1.375 -2.0838,-6.8657 -4.0119,-12.2014 -1.928,-5.3357 -3.1542,-9.8357 -2.7248,-10 0.4294,-0.1643 -0.021,-2.7736 -1.0015,-5.7986 -0.9802,-3.025 -1.86,-4.6 -1.9551,-3.5 l -0.1729,2 -0.8594,-2 c -0.4727,-1.1 -0.891,-3.6313 -0.9297,-5.625 -0.097,-4.9908 -1.1655,-9.9342 -2.032,-9.3987 -0.3949,0.2441 -1.4778,-4.1507 -2.4062,-9.7663 -0.9284,-5.6155 -2.3584,-12.91 -3.1776,-16.21 -4.0705,-16.3963 -4.5869,-25.95593 -4.183,-77.44342 l 0.3888,-49.55666 3.1671,-12 c 1.7419,-6.6 3.1665,-13.125 3.1658,-14.5 -6e-4,-1.375 1.1665,-6.325 2.5936,-11 2.8497,-9.33494 4.7116,-15.99327 6.5015,-23.25 0.6444,-2.6125 1.5069,-4.75 1.9167,-4.75 0.4097,0 0.745,-1.07264 0.745,-2.38364 0,-1.311 1.8583,-5.86943 4.1294,-10.12984 5.0272,-9.43027 7.5857,-16.58103 6.232,-17.41768 -0.5369,-0.33183 0.5733,-2.39557 2.4672,-4.58608 1.8939,-2.19052 3.7202,-4.85347 4.0585,-5.91766 0.5635,-1.77286 7.125,-11.69956 11.5343,-17.44996 1.0057,-1.31167 1.8143,-3.11167 1.7968,-4 -0.028,-1.42219 -0.1905,-1.40608 -1.3602,0.13486 -0.7307,0.9625 -1.8489,1.75 -2.4851,1.75 -2.3087,0 12.8768,-25.42089 21.7365,-36.38751 1.7273,-2.13812 3.1406,-4.31363 3.1406,-4.83445 0,-1.08515 7.963,-11.69613 12.399,-16.5222 1.6401,-1.78429 3.0928,-3.99882 3.2282,-4.92117 0.1353,-0.92236 2.1088,-3.48499 4.3855,-5.69473 2.2767,-2.20974 5.0068,-5.71797 6.067,-7.79606 1.1912,-2.33512 2.4426,-3.58069 3.276,-3.26089 1.4043,0.53887 4.6443,-3.53259 4.6443,-5.83605 0,-0.72788 2.025,-3.01611 4.5,-5.08495 2.475,-2.06884 4.5,-4.40376 4.5,-5.18871 0,-0.78495 1.2375,-2.19344 2.75,-3.12998 3.0766,-1.90504 5.8502,-4.59853 11.6262,-11.29036 4.19481,-4.85986 8.71101,-8.6595 7.10291,-5.97582 -0.4689,0.78258 -2.638,3.8057 -4.8201,6.71803 l -3.96751,5.29515 13.86371,13.20485 c 7.625,7.26267 22.4633,21.659 32.9741,31.99186 l 19.1105,18.78701 5.1801,-4.21384 c 2.8491,-2.31761 5.1801,-4.82064 5.1801,-5.5623 0,-0.74165 -14.625,-15.89246 -32.5,-33.66847 -17.875,-17.77601 -32.4858,-32.72713 -32.4686,-33.22471 0.017,-0.49759 1.1423,-1.71321 2.5,-2.70139 1.8526,-1.34837 2.4686,-1.4597 2.4686,-0.44616 0,1.75751 5.6383,7.08524 9.6184,9.0885 3.0989,1.55977 47.9805,45.45664 52.2593,51.11275 1.805,2.38598 2.5654,2.75344 3.9302,1.89913 2.7635,-1.72994 2.6322,-6.06706 -0.308,-10.16836 l -2.6448,-3.68917 3.5548,3.8962 c 2.8212,3.0921 3.4227,4.42273 2.9145,6.44745 -0.9019,3.59363 -9.7997,14.90041 -15.4684,19.65635 -3.5682,2.9936 -4.6561,4.53484 -4.324,6.12576 0.2747,1.31573 -0.4291,3.03049 -1.8469,4.5 -3.0822,3.19467 -10.5534,14.3741 -12.5637,18.79953 -1.9288,4.24602 -7.7179,12.7586 -9.0023,13.23735 -1.5843,0.59058 -7.1018,10.80522 -8.003,14.81627 -0.4776,2.12537 -1.824,5.20656 -2.9922,6.84707 -1.1681,1.64052 -2.1258,3.58829 -2.1282,4.32839 0,0.74009 -1.7907,3.7018 -3.974,6.58157 -2.1833,2.87977 -3.725,5.87365 -3.4259,6.65305 0.2991,0.77941 -0.4295,3.32496 -1.6191,5.65679 -1.7227,3.3766 -1.8474,4.11857 -0.6126,3.64475 1.1989,-0.46007 0.8512,1.26441 -1.5336,7.60727 -1.6962,4.51121 -4.8623,13.33441 -7.0357,19.60711 -2.1734,6.27269 -4.5486,12.34769 -5.2781,13.5 -0.7295,1.1523 -1.6427,4.57009 -2.0293,7.59509 -0.3866,3.025 -1.41091,6.30049 -2.27631,7.27887 -1.2169,1.37586 -1.5526,3.98126 -1.4818,11.5 0.06,6.37618 -0.5404,12.25383 -1.745,17.08171 -1.0102,4.04832 -1.5806,8.02781 -1.2677,8.84331 0.313,0.8155 0.059,4.47824 -0.5642,8.13942 -2.7763,16.30814 -1.9826,42.52884 2.4718,81.65677 2.8887,25.3744 5.10931,39.4739 6.47631,41.1211 0.5269,0.6349 1.884,6.0392 3.0158,12.0096 1.1318,5.9704 2.6385,11.9835 3.3483,13.3623 0.7098,1.3788 1.7452,3.857 2.3008,5.507 12.3368,36.6372 14.5576,42.59 15.7225,42.143 0.7817,-0.3 1.944,1.1291 2.9957,3.6834 3.9253,9.534 4.8486,11.2973 10.307,19.6856 3.1402,4.8256 8.4017,12.9845 11.6922,18.1309 3.2905,5.1464 10.0405,14.6743 15,21.1732 4.9595,6.4988 10.46,13.9238 12.2235,16.5 1.7634,2.5761 4.2174,5.9905 5.4533,7.5875 4.3793,5.659 3.6071,7.7247 -6.2588,16.7418 -4.8955,4.4742 -8.9211,8.6343 -8.9459,9.2447 -0.025,0.6104 -0.6953,2.4599 -1.4901,4.1099 -0.9275,1.9256 -1.2453,2.1942 -0.8875,0.75 0.9464,-3.8197 -1.3251,-2.506 -5.5457,3.2073 -4.41,5.9694 -5.1706,7.8834 -1.9886,5.0037 1.3892,-1.2572 1.8654,-1.386 1.488,-0.4025 -0.3053,0.7956 -2.6067,2.7445 -5.1143,4.3309 -2.5076,1.5864 -5.5118,4.1728 -6.676,5.7475 -1.1643,1.5747 -2.6102,2.8631 -3.2132,2.8631 -1.1682,0 -10.5275,10.6751 -10.5275,12.0075 0,0.4348 -1.6875,1.6722 -3.75,2.7498 -2.0625,1.0776 -5.2601,3.3731 -7.1057,5.101 -3.2969,3.0865 -5.156,3.7966 -6.4781,2.4745 z m 10.7631,-23.072 3.7838,-4.2391 -36.87391,-36.7609 c -51.4886,-51.3308 -62.04,-61.467 -59.6066,-57.2608 1.1137,1.925 2.536,5.075 3.1607,7 0.6248,1.925 6.1918,11.0321 12.3713,20.238 10.9697,16.3421 11.943,17.4468 41.1537,46.7055 18.28701,18.317 30.36721,29.6932 31.07281,29.262 0.6349,-0.3881 2.8571,-2.6131 4.9382,-4.9447 z m 13.3899,-14.5108 c 8.1599,-7.0874 8.4838,-5.9153 -5.4798,-19.8295 -6.8555,-6.8313 -17.2361,-17.5955 -23.068,-23.9205 -5.8318,-6.325 -11.8786,-12.2809 -13.4374,-13.2353 -1.55871,-0.9545 -2.83231,-2.3045 -2.83021,-3 0.01,-1.8211 -10.3383,-10.8416 -11.0715,-9.6552 -0.3378,0.5465 -2.4476,-1.3921 -4.6885,-4.308 -4.4435,-5.7818 -19.2049,-21.199 -23.3044,-24.3398 -1.4083,-1.079 -3.6152,-3.5367 -4.9041,-5.4617 -3.1389,-4.688 -11.1826,-13 -12.5803,-13 -0.6162,0 -2.6388,-1.9125 -4.4949,-4.25 -7.1815,-9.0445 -18.758,-21.1087 -25.3187,-26.3855 -3.7723,-3.034 -6.6973,-5.104 -6.5,-4.6 0.1972,0.504 4.8412,11.0007 10.32,23.3259 l 9.9614,22.4096 8.5386,8.636 c 4.6962,4.7498 13.7136,14.3781 20.0386,21.3962 13.4839,14.9614 20.0585,21.625 33,33.4466 9.495,8.6734 18.51631,17.7741 27.65051,27.8939 2.6672,2.955 6.8745,6.7365 9.3495,8.4032 2.475,1.6668 6.2042,4.7615 8.2871,6.8773 2.083,2.1157 4.2038,3.8468 4.713,3.8468 0.5093,0 3.1278,-1.9125 5.8191,-4.25 z m -7.4961,1 c -3.1073,-3.4517 -4.0103,-5.5517 -1.4024,-3.2612 2.0952,1.84 4.619,5.5112 3.7888,5.5112 -0.1985,0 -1.2724,-1.0125 -2.3864,-2.25 z m -12.6945,-12.8276 c -1.4527,-1.1426 -3.1435,-3.0551 -3.7573,-4.25 -0.7043,-1.3709 0.405,-0.7139 3.0063,1.7805 2.2673,2.1741 4.1224,4.0866 4.1224,4.25 0,0.6523 -0.848,0.2045 -3.3714,-1.7805 z m -58.65641,-56.6724 c -4.6104,-4.8125 -13.3528,-13.9327 -19.4274,-20.2672 -17.3836,-18.1269 -19.8459,-21.1317 -8.9548,-10.9275 5.5495,5.1995 12.6113,12.3767 15.6927,15.9492 3.0815,3.5725 7.3212,8.1049 9.4216,10.0719 3.9307,3.6812 12.8068,13.9236 12.0662,13.9236 -0.2286,0 -4.1879,-3.9375 -8.7983,-8.75 z m 97.74001,49.5417 c 2.3583,-2.3145 4.2878,-4.7333 4.2878,-5.3752 0,-0.6418 -3.1476,-4.0356 -6.9947,-7.5418 -3.8471,-3.5061 -14.0595,-13.9384 -22.6941,-23.1829 -8.6347,-9.2445 -16.9376,-17.5395 -18.4509,-18.4335 -1.5134,-0.8939 -2.5461,-1.9576 -2.2951,-2.3638 0.4831,-0.7816 -11.2378,-11.3945 -12.5841,-11.3945 -0.4338,0 -2.73921,-2.25 -5.12291,-5 -2.3837,-2.75 -9.2895,-10.0962 -15.3461,-16.3247 -6.0567,-6.2286 -15.7876,-16.3536 -21.6244,-22.5 -15.2446,-16.0534 -32.9655,-33.8829 -35.9707,-36.1913 -1.4207,-1.0912 -9.4804,-9.634 -17.9105,-18.984 -8.4301,-9.35 -15.7489,-17.1646 -16.264,-17.3657 -1.31,-0.5115 0.8089,3.2485 2.7283,4.8414 0.869,0.7212 3.931,4.0566 6.8046,7.412 l 5.2246,6.1007 -7.1724,-6.3209 c -3.9448,-3.4764 -7.4429,-7.0258 -7.7735,-7.8873 -1.3108,-3.4158 -1.2846,-0.4037 0.058,6.6553 0.7777,4.0896 2.0069,8.1396 2.7316,9 0.7247,0.8605 2.1442,3.8018 3.1545,6.5363 1.0103,2.7345 3.899,7.196 6.4194,9.9144 10.2264,11.0297 152.65311,152.5733 153.54481,152.5928 0.5291,0.012 2.8916,-1.8727 5.25,-4.1873 z m 8.8922,-16.02 c -1.4769,-1.7995 -7.0927,-9.1217 -12.4793,-16.2717 -8.9407,-11.8675 -13.9345,-19.1703 -24.5483,-35.8992 -2.5521,-4.0225 -26.6519,-28.6768 -75.75681,-77.5 -39.6078,-39.3805 -72.3415,-71.7246 -72.7418,-71.8758 -0.7209,-0.2723 1.1583,11.267 2.854,17.525 0.4843,1.7875 0.5474,3.25 0.1401,3.25 -0.4073,0 20.4441,21.0375 46.3365,46.75 25.8924,25.7125 67.55531,67.299 92.58411,92.4144 41.3251,41.4681 51.3384,51.0211 43.6115,41.6073 z m -50.6044,-79.7066 c 0,-1.9968 -1.9678,-5.9583 -3.8343,-7.7191 -2.1337,-2.0129 -7.1466,-13.2031 -7.1971,-16.0659 -0.017,-0.9791 -1.3672,-4.4687 -3,-7.7547 -1.6327,-3.286 -2.9686,-6.4675 -2.9686,-7.07 0,-0.6025 -1.6558,-3.0889 -3.67961,-5.5254 -2.0238,-2.4365 -3.0588,-3.8675 -2.3,-3.18 3.93041,3.5611 3.011,-0.9006 -1.1154,-5.4125 -1.4272,-1.5607 -7.0472,-6.8875 -12.4889,-11.8375 -12.5544,-11.4202 -19.5368,-18.4136 -26.225,-26.2666 -2.92,-3.4284 -5.8765,-6.2334 -6.57,-6.2334 -0.6936,0 -3.1011,-1.575 -5.3501,-3.5 -4.607,-3.9435 -6.6624,-4.6584 -3.5941,-1.25 1.1141,1.2375 2.3576,2.925 2.7633,3.75 0.7174,1.4585 -2.5768,-2.0669 -10.0448,-10.75 -2.0104,-2.3375 -4.1836,-4.25 -4.8293,-4.25 -0.6457,0 -3.5237,-3.0375 -6.3956,-6.75 -2.8719,-3.7125 -13.2976,-15.07503 -23.1682,-25.25003 l -17.9465,-18.5 -0.028,10.0066 c -0.015,5.5036 0.4186,11.5634 0.9643,13.4662 0.7316,2.5508 7.3654,9.9092 25.25,28.00813 13.3418,13.5016 26.3177,26.8425 28.8353,29.6464 2.5175,2.804 5.8925,5.7404 7.5,6.5254 1.6074,0.785 2.8142,2.0924 2.6819,2.9054 -0.2104,1.2926 9.9624,10.4385 11.6166,10.4439 0.3432,0 3.4788,3.1511 6.968,7 3.4892,3.8489 10.2392,10.8745 15,15.6125 4.7608,4.738 9.1085,9.238 9.6616,10 3.815,5.2561 10.96351,12.8855 12.07331,12.8855 1.1223,0 4.9275,4.237 14.4211,16.0577 1.6308,2.0305 3,2.4903 3,1.0074 z m -68.00001,-89.5651 c -1.8658,-1.925 -2.9665,-3.5 -2.4462,-3.5 0.5204,0 2.2029,1.575 3.7388,3.5 3.5653,4.4683 3.0383,4.4683 -1.2926,0 z m 46,30.0185 c 0,-2.4463 -2.1037,-15.7484 -3.1263,-19.7685 -0.5247,-2.0625 -1.3859,-3.75 -1.9138,-3.75 -0.528,0 -0.9599,-0.8844 -0.9599,-1.9652 0,-2.5122 -4.7998,-7.9841 -12.8002,-14.5926 -3.4651,-2.8623 -11.0609,-10.5452 -16.8795,-17.0732 -5.8186,-6.528 -11.9835,-13.23453 -13.6998,-14.90343 -1.7163,-1.6689 -4.8948,-5.2335 -7.0634,-7.9213 -2.3945,-2.9678 -4.1145,-4.372 -4.38,-3.5758 -0.2403,0.7211 1.4169,3.1607 3.6828,5.4213 7.4662,7.4487 13.1554,13.92823 12.6624,14.42133 -0.2669,0.2668 -3.2183,-2.39413 -6.5588,-5.91303 -3.3405,-3.519 -8.0085,-8.4231 -10.3733,-10.8981 -4.8232,-5.0478 -7.2419,-8.6473 -3.756,-5.5895 1.198,1.0508 2.4403,1.6483 2.7608,1.3278 1.0968,-1.0968 -4.0928,-7.4378 -11.595,-14.1679 -4.125,-3.7004 -9.5765,-8.6051 -12.1145,-10.8992 -2.538,-2.29421 -6.277,-6.51183 -8.3088,-9.37253 -2.0319,-2.8607 -4.6803,-5.49322 -5.8855,-5.85004 -2.7268,-0.80735 -9.2999,-5.03681 -12.9218,-8.31458 l -2.7306,-2.47114 -1.5194,3.6364 c -1.8393,4.40199 -1.9113,8.8598 -0.2294,14.20064 0.9463,3.00489 3.9852,6.61215 12.2152,14.50005 6.0256,5.775 11.1894,10.7906 11.4752,11.1459 2.796,3.4758 92.4928,93.85413 93.1464,93.85413 0.4803,0 0.8732,-0.6667 0.8732,-1.4815 z m -12.595,-30.7685 -1.905,-2.25 2.25,1.9049 c 1.2375,1.0478 2.25,2.0603 2.25,2.25 0,0.8003 -0.8048,0.2095 -2.595,-1.9049 z m -88.9461,-88.81661 c -0.3625,-0.5866 -0.4447,-1.281 -0.1826,-1.54313 0.2622,-0.26213 0.7431,0.21781 1.0688,1.06653 0.6762,1.76211 0.1,2.07206 -0.8862,0.4766 z m 91.4007,71.04891 c -1.105,-4.1153 -1.7974,-8.8323 -1.5388,-10.4823 0.4417,-2.8175 -2.6093,-6.0874 -50.1527,-53.75008 -27.8426,-27.9125 -50.9706,-50.75 -51.3955,-50.75 -0.4249,0 -0.8248,1.6875 -0.8886,3.75 -0.064,2.0625 -0.3228,2.95699 -0.5757,1.98775 -0.8498,-3.25791 -2.3085,-0.66311 -2.2886,4.07126 0.019,4.62101 0.2021,4.88337 12.25,17.58754 6.7267,7.0931 24.3803,24.86169 39.2303,39.4858 14.85,14.624 33.7266,33.21903 41.9479,41.32223 8.2214,8.1031 15.0543,14.6266 15.1843,14.4966 0.13,-0.13 -0.6677,-3.6034 -1.7726,-7.7188 z m -0.549,-30.23233 c 0.3157,-2.3375 0.15,-4.6775 -0.3683,-5.2 -0.5183,-0.5225 -0.9423,-3.5922 -0.9423,-6.8215 0,-3.3292 -0.5412,-6.4408 -1.25,-7.1863 -0.6875,-0.7233 -3.275,-3.7028 -5.75,-6.6213 -2.475,-2.9185 -6.3036,-7.13212 -8.5081,-9.36364 -5.6788,-5.74852 -7.8311,-8.73493 -3.9919,-5.5389 3.3779,2.81193 15.6344,15.45094 17.9337,18.49334 0.8265,1.0935 1.517,1.5073 1.5345,0.9194 0.039,-1.3205 -12.9098,-16.43115 -14.0806,-16.43115 -0.4658,0 -1.7219,-1.71501 -2.7912,-3.81113 -1.0694,-2.09612 -5.016,-6.4832 -8.7704,-9.74908 -3.7543,-3.26587 -7.9204,-6.92678 -9.2581,-8.13536 -1.3376,-1.20858 -2.8112,-1.96304 -3.2747,-1.67659 -0.4635,0.28645 -0.7191,0.14612 -0.568,-0.31184 0.2614,-0.792 -4.6164,-6.35143 -13.9927,-15.94814 -2.3472,-2.40233 -5.0118,-4.36786 -5.9213,-4.36786 -0.9095,0 -2.4766,-0.74475 -3.4824,-1.65499 -2.0536,-1.85847 -2.5135,-0.52476 -0.5788,1.67845 0.6875,0.78291 0.2375,0.57817 -1,-0.45498 -1.2375,-1.03315 -2.25,-2.30405 -2.25,-2.82423 0,-0.52017 -2.888,-3.93793 -6.4177,-7.59501 -3.5298,-3.65708 -10.144,-10.59637 -14.6983,-15.42064 -5.5232,-5.85061 -8.506,-8.34804 -8.9575,-7.5 -0.3724,0.69927 -1.2127,5.01775 -1.8675,9.59663 -1.0198,7.13228 -0.974,8.65548 0.3197,10.62989 1.967,3.00207 92.7806,93.54493 93.8247,93.54493 0.4381,0 0.8353,-1.6875 0.8826,-3.75 0.084,-3.6513 0.1083,-3.6754 0.9361,-0.9154 0.4676,1.559 0.6054,3.4725 0.3062,4.2522 -0.6894,1.7965 0.4329,6.4132 1.5591,6.4132 0.4671,0 1.1076,-1.9125 1.4232,-4.25 z m -4.1527,-15.75 c 0,-1.375 0.227,-1.9375 0.5044,-1.25 0.2774,0.6875 0.2774,1.8125 0,2.5 -0.2774,0.6875 -0.5044,0.125 -0.5044,-1.25 z m -44.5936,-51.70692 c -0.5427,-1.4252 -0.4278,-1.54007 0.5598,-0.5598 0.6834,0.67833 0.9907,1.48524 0.6828,1.79313 -0.3079,0.30789 -0.8671,-0.24711 -1.2426,-1.23333 z m -9,-8 c -0.5427,-1.4252 -0.4278,-1.54007 0.5598,-0.5598 0.6834,0.67833 0.9907,1.48524 0.6828,1.79313 -0.3079,0.30789 -0.8671,-0.24711 -1.2426,-1.23333 z m 55.3198,30.28366 0.2317,-6.92321 -34.3079,-34.70516 c -18.8693,-19.08785 -36.1276,-36.6724 -38.3516,-39.0768 -5.1564,-5.57444 -15.3993,-14.87162 -16.3844,-14.87162 -0.4145,0 -1.3326,2.5875 -2.0403,5.75 -0.7076,3.1625 -1.4494,6.2 -1.6484,6.75 -0.199,0.55 1.0228,2.575 2.7152,4.5 4.9455,5.62552 34.0427,35.41175 62.2624,63.73682 29.06,29.16853 27.0796,28.10071 27.5233,14.83997 z m 3.1159,-28.91331 v -10.33651 l -14.8079,-15.16349 c -8.1444,-8.33991 -15.3388,-15.16348 -15.9875,-15.16348 -0.6487,0 -2.2676,-1.72368 -3.5975,-3.8304 -3.4435,-5.4548 -18.7279,-21.7194 -20.1218,-21.4122 -0.6424,0.14157 -4.5018,-3.85336 -8.5766,-8.87762 -8.5982,-10.60175 -8.1186,-10.06676 -14.15,-15.78266 l -4.6459,-4.40288 -2.4322,5.40288 c -1.3377,2.97158 -2.98,7.11146 -3.6494,9.19973 -1.2051,3.75919 -1.1702,3.84847 3.5182,9 2.6044,2.86173 6.427,7.06405 8.4946,9.33848 2.0675,2.27443 5.041,4.91639 6.6076,5.87103 1.5666,0.95463 4.4234,3.60384 6.3484,5.88712 1.925,2.28329 7.55,7.8134 12.5,12.28914 4.95,4.47574 17.9958,17.17814 28.9906,28.22755 10.9949,11.0494 20.3324,20.08983 20.75,20.08983 0.4177,0 0.7594,-4.65143 0.7594,-10.33652 z m 4.3697,-24.91348 c 0.3317,-1.2375 0.6091,-3.95672 0.6167,-6.0427 0.018,-5.11447 -5.687,-12.74654 -15.7627,-21.08577 -4.248,-3.51587 -9.7487,-8.80194 -12.2237,-11.74682 -2.475,-2.94489 -6.0616,-6.70892 -7.9703,-8.36452 -13.077,-11.34295 -35.5054,-35.86136 -37.3438,-40.82357 -0.3694,-0.99736 -1.0973,-1.5504 -1.6174,-1.22897 -0.52,0.32143 -1.3952,-0.21255 -1.9447,-1.18662 -0.6544,-1.15987 -1.3233,-1.42594 -1.9383,-0.77103 -1.6018,1.70553 -5.0442,12.93028 -4.3465,14.17234 2.2554,4.01497 78.6765,79.32766 80.4952,79.32766 0.7879,0 1.7039,-1.0125 2.0355,-2.25 z m 6.5757,-30.66096 c 1.4501,-5.66812 1.80791,-8.62347 1.0973,-9.06265 -2.798,-1.72928 -28.9827,-28.33717 -33.7312,-34.27639 -2.9682,-3.7125 -5.8941,-6.75 -6.5021,-6.75 -0.608,0 -8.2828,-7.2 -17.0552,-16 -8.7723,-8.8 -16.2431,-15.98164 -16.6019,-15.95919 -0.3588,0.0224 -2.6429,3.23751 -5.0758,7.14458 l -4.4236,7.10378 3.9236,3.60541 c 2.158,1.98298 6.8486,6.92201 10.4236,10.97561 3.5749,4.05361 9.9669,10.26286 14.2044,13.79834 4.2375,3.53548 13.3542,12.59389 20.2594,20.1298 18.6845,20.39109 23.4378,25.20167 24.9014,25.20167 0.7286,0 2.1488,0.91063 3.1561,2.02363 1.0072,1.11299 2.1555,1.67549 2.5518,1.25 0.3962,-0.4255 1.6887,-4.55856 2.8722,-9.18459 z m 8.50261,-28.133 c 2.2369,-6.82909 2.3046,-7.57195 0.8378,-9.19275 -2.0717,-2.28917 -3.9507,-2.30072 -2.1629,-0.0133 0.7522,0.9625 -1.266,-0.95 -4.4849,-4.25 -3.21901,-3.3 -7.05531,-7.61831 -8.52521,-9.59624 -5.077,-6.83151 -29.6165,-31.91582 -30.7873,-31.47083 -0.646,0.24551 -1.8494,-0.53897 -2.6743,-1.74328 -2.4693,-3.60525 -6.3243,-7.68965 -7.2578,-7.68965 -0.4806,0 -3.6965,-2.99426 -7.1464,-6.65391 -3.4499,-3.65965 -6.4304,-6.47215 -6.6234,-6.25 -0.193,0.22215 -2.2678,3.46536 -4.6105,7.20713 l -4.2596,6.80323 11.5221,11.69677 c 6.3371,6.43323 13.3453,13.94678 15.5737,16.69678 7.9127,9.76467 10.437,12.54701 10.9333,12.05079 0.2763,-0.27635 -0.096,-1.30083 -0.8263,-2.27663 -0.7309,-0.97579 4.0425,3.41869 10.6075,9.7655 21.3035,20.59569 25.50671,24.28987 26.50311,23.29346 0.5212,-0.52119 2.0427,-4.29088 3.3811,-8.37708 z m 7.9154,-21.83109 c 1.4502,-3.23127 2.6366,-6.22632 2.6366,-6.65566 0,-1.49685 -19.70071,-22.04162 -32.33811,-33.72371 -4.311,-3.98507 -8.5705,-8.48308 -9.4656,-9.99558 -0.8951,-1.5125 -2.0254,-2.75 -2.5117,-2.75 -1.347,0 -18.9299,-16.80495 -21.0328,-20.10216 -1.0165,-1.59381 -2.1415,-2.89483 -2.5,-2.89115 -0.3585,0.004 -2.2864,3.04118 -4.2842,6.75 l -3.6325,6.74331 8.038,7.5 c 17.1037,15.95884 24.8444,23.46564 42.2269,40.9508 9.90001,9.95845 18.15001,18.54343 18.33331,19.07773 0.7234,2.1082 2.007,0.71884 4.5301,-4.90358 z m 11.6012,-20.13976 c 0.019,-0.83315 0.9371,-3.19719 2.0392,-5.25344 l 2.0038,-3.73862 -2.9269,-4.04038 c -4.6984,-6.486 -31.47691,-34.26419 -31.87621,-33.06625 -0.2001,0.60033 -2.1384,-1.15354 -4.3074,-3.89749 -2.169,-2.74396 -4.4204,-4.98901 -5.0032,-4.98901 -0.5828,0 -5.9766,-5.0625 -11.9862,-11.25 l -10.9266,-11.25 -2.9875,3.45856 c -1.6431,1.90221 -3.7399,5.42879 -4.6596,7.83685 l -1.672,4.37828 4.897,4.16315 c 8.3676,7.11365 26.6317,25.90885 33.441,34.4134 3.575,4.46503 7.2909,8.14783 8.25761,8.184 0.9667,0.0362 6.5149,4.90326 12.3294,10.81576 l 10.5717,10.75 1.3852,-2.5 c 0.7619,-1.375 1.4012,-3.18167 1.4207,-4.01481 z m 13.3241,-19.37692 c 1.7074,-1.58242 2.4041,-3.06693 2.0589,-4.38714 -0.287,-1.09748 -0.033,-2.29776 0.5653,-2.66729 0.5979,-0.36953 1.0871,-1.00248 1.0871,-1.40655 0,-0.40407 -11.7577,-12.41501 -26.1282,-26.69098 -14.3705,-14.27597 -29.06331,-28.99381 -32.65061,-32.70631 -3.5873,-3.7125 -7.0754,-6.75 -7.7513,-6.75 -1.3843,0 -8.4699,8.2669 -8.4699,9.882 0,1.28638 14.8403,16.29438 25,25.28246 4.125,3.64932 15.37261,14.55521 24.99461,24.23533 9.622,9.68011 17.7688,17.60021 18.104,17.60021 0.3351,0 1.7707,-1.07628 3.1901,-2.39173 z m 10.3332,-18.85827 c 0.9203,-1.7875 3.2368,-5.16336 5.1477,-7.50191 l 3.4745,-4.25191 -13.8364,-14.61174 c -7.6101,-8.03646 -14.5275,-14.869 -15.3721,-15.18343 -0.8446,-0.31443 -3.5942,-2.62579 -6.1104,-5.13635 -2.5161,-2.51056 -5.2161,-5.06964 -6,-5.68684 -0.7838,-0.61719 -6.5559,-6.35469 -12.8267,-12.75 -6.27081,-6.3953 -11.49191,-11.62782 -11.60251,-11.62782 -0.1105,0 -2.3341,2.71517 -4.9413,6.03371 l -4.7404,6.03371 3.7122,4.53019 c 2.0417,2.4916 10.0709,10.9651 17.84281,18.83001 7.7719,7.86491 18.0998,18.63616 22.9509,23.93611 4.8511,5.29995 9.3963,9.63627 10.1006,9.63627 0.7042,0 3.2553,2.475 5.6691,5.5 2.4138,3.025 4.4945,5.5 4.6238,5.5 0.1292,0 0.9879,-1.4625 1.9082,-3.25 z m 782.21,526.47508 c -1.8325,-1.5717 -5.4694,-4.3666 -8.0819,-6.2109 -2.6125,-1.8442 -4.75,-3.6635 -4.75,-4.0429 0,-0.9382 -8.002,-9.9708 -8.835,-9.9728 -0.3657,-9e-4 -3.815,-3.001 -7.665,-6.667 -3.85,-3.666 -6.4375,-6.3387 -5.75,-5.9394 0.6875,0.3993 1.25,0.317 1.25,-0.183 0,-1.2296 -5.2241,-8.346 -7.4945,-10.209 -1.7058,-1.3999 -1.792,-1.3113 -1.2909,1.3258 0.7149,3.7614 -0.6689,2.1259 -2.1662,-2.5604 -0.7953,-2.4889 -3.0687,-5.3242 -6.8154,-8.5 -8.3799,-7.103 -11.233,-10.3259 -11.233,-12.6893 0,-2.475 7.0722,-13.0609 18.7269,-28.0309 14.0678,-18.0694 34.6343,-50.1064 36.8707,-57.4342 0.774,-2.5361 2.3417,-5.736 3.4838,-7.111 l 2.0765,-2.5 -0.5453,3 c -0.483,2.6571 -0.329,2.5428 1.3469,-1 1.0407,-2.2 1.9291,-4.675 1.9742,-5.5 0.045,-0.825 2.8246,-9.375 6.1766,-19 3.352,-9.625 6.3259,-18.5125 6.6087,-19.75 0.2828,-1.2375 0.8794,-2.25 1.3259,-2.25 0.4464,0 1.2821,-2.3625 1.857,-5.25 3.2624,-16.3861 4.3915,-21.3515 5.0592,-22.25 1.2214,-1.6434 3.8432,-17.0331 5.5367,-32.5 0.8733,-7.975 2.074,-17.44903 2.6683,-21.05333 1.2518,-7.5922 1.6889,-62.93111 0.583,-73.8009 -0.4116,-4.04478 -1.4012,-9.89478 -2.1992,-13 -0.798,-3.10522 -1.4685,-9.24585 -1.49,-13.64585 -0.055,-11.30736 -0.047,-11.24457 -1.578,-12.51508 -0.7611,-0.63165 -1.6801,-3.24916 -2.0422,-5.81669 -0.7099,-5.03309 -14.9073,-45.24419 -18.3732,-52.03789 -1.1589,-2.27169 -1.8845,-4.13034 -1.6125,-4.13034 0.2721,0 1.1928,1.35 2.046,3 0.8533,1.65 2.0343,3 2.6245,3 0.5902,0 0.077,-1.6875 -1.1413,-3.75 -1.2179,-2.0625 -2.3,-4.978 -2.4046,-6.47888 -0.1047,-1.50089 -1.1777,-3.77989 -2.3844,-5.06446 -1.2068,-1.28456 -2.1942,-2.78303 -2.1942,-3.32994 0,-0.54691 -1.575,-3.60993 -3.5,-6.8067 -1.925,-3.19678 -3.5,-6.44564 -3.5,-7.21969 0,-2.4466 -5.6502,-12.62897 -10.3294,-18.61478 -2.4784,-3.17044 -5.5366,-7.89544 -6.7961,-10.5 -1.2595,-2.60455 -3.9946,-6.98555 -6.0779,-9.73555 -2.0834,-2.75 -3.7899,-5.83565 -3.7923,-6.85699 0,-1.20995 -0.5092,-1.66324 -1.4534,-1.30093 -0.9086,0.34868 -1.2646,0.0754 -0.9545,-0.7328 0.2721,-0.70887 -0.1741,-1.84385 -0.9914,-2.52218 -0.8174,-0.67833 -1.2592,-1.82473 -0.9818,-2.54754 0.2862,-0.74593 -1.8894,-3.38078 -5.0313,-6.09331 -3.0446,-2.6285 -7.4419,-7.5167 -9.7719,-10.86267 -2.33,-3.34597 -4.5927,-6.23358 -5.0282,-6.41692 -1.8888,-0.79512 -0.6699,-5.92547 1.9582,-8.24235 l 2.75,-2.42431 -2.25,2.56445 c -2.7581,3.14362 -2.8459,5.3795 -0.3178,8.09317 l 1.9322,2.07399 17.8178,-18.2633 c 16.2558,-16.66223 29.5232,-29.15634 41.7196,-39.28808 2.529,-2.10087 4.5982,-4.46337 4.5982,-5.25 0,-0.78663 0.3803,-1.43023 0.845,-1.43023 1.1105,0 4.155,3.38758 4.155,4.62314 0,1.07279 -18.5531,20.23811 -35.5,36.67146 -17.8777,17.33591 -28.503,28.49975 -28.455,29.89696 0.025,0.71964 2.2738,3.25694 4.9978,5.63844 l 4.9527,4.33 12.3403,-12.33 c 6.7871,-6.7815 17.6886,-17.28 24.2254,-23.33 6.5369,-6.05 15.8026,-15.01348 20.5906,-19.91884 l 8.7054,-8.91884 -3.2964,-4.08116 c -3.3881,-4.19468 -6.0135,-8.58116 -5.136,-8.58116 0.8707,0 10.0408,10.09313 10.978,12.08311 0.4966,1.05429 1.3109,1.91689 1.8096,1.91689 1.4821,0 9.7876,7.3212 9.7876,8.62773 0,0.66232 1.8022,2.63153 4.0048,4.37603 2.2026,1.74451 3.7491,3.58539 3.4367,4.09086 -0.8934,1.44553 3.6032,7.10222 5.1682,6.50165 0.8729,-0.33493 2.091,0.84063 3.302,3.1865 1.0554,2.04447 3.757,5.49605 6.0036,7.67018 2.2466,2.17412 4.0847,4.7507 4.0847,5.72574 0,0.97505 1.575,3.20602 3.5,4.95774 1.925,1.75171 3.5,3.75012 3.5,4.44091 0,0.6908 0.4117,1.40599 0.9149,1.58932 0.5032,0.18334 3.4374,4.03958 6.5205,8.56944 3.0831,4.52985 7.9838,11.72985 10.8904,16 6.7244,9.87915 16.6742,26.31941 16.6742,27.55123 0,0.51848 -1.125,0.20556 -2.5,-0.69538 -3.2962,-2.15977 -3.1595,-0.80248 0.4164,4.13386 1.6039,2.21424 3.8631,5.88176 5.0203,8.15004 1.1572,2.26828 2.4726,4.12415 2.9231,4.12415 0.4506,0 1.3574,1.18129 2.0153,2.6251 0.6578,1.4438 2.755,4.52765 4.6605,6.85299 3.2707,3.99154 4.656,7.37636 2.4644,6.02191 -2.1205,-1.31055 -0.7678,2.42413 5.5,15.18512 3.575,7.27853 6.5,13.90579 6.5,14.72723 0,0.82145 0.3983,2.52722 0.8851,3.79059 0.4868,1.26338 1.654,5.67206 2.5937,9.79706 0.9396,4.125 2.3881,9.3 3.2187,11.5 0.8306,2.2 2.5827,9.625 3.8936,16.5 1.3109,6.875 3.2815,16.55 4.379,21.5 1.8378,8.28868 1.9916,12.5961 1.9449,54.5 -0.053,47.65365 0.1142,45.10045 -4.9156,75.00008 -3.1753,18.8752 -4.451,24.5741 -5.6633,25.2996 -0.8295,0.4965 -1.3361,2.692 -1.3361,5.7905 0,3.4626 -0.6276,5.8397 -2.0494,7.7629 -1.1387,1.5401 -2.4317,5.4758 -2.9095,8.856 -0.4729,3.3461 -1.3585,7.0155 -1.9679,8.1542 -1.5459,2.8885 -5.0447,14.2596 -5.0603,16.4458 -0.01,0.9949 -0.4126,1.562 -0.9011,1.2601 -0.9629,-0.5952 -4.0392,7.8589 -4.2278,11.6188 -0.085,1.6942 -0.2382,1.8444 -0.5733,0.5621 -0.2515,-0.9625 -0.8058,-1.75 -1.2318,-1.75 -0.4259,0 -2.7141,5.2875 -5.0849,11.75 -2.3708,6.4625 -5.3643,13.8725 -6.6522,16.4667 -1.288,2.5942 -2.3734,5.9692 -2.4121,7.5 -0.087,3.4319 -1.2238,6.4762 -2.3522,6.2975 -1.1535,-0.1827 -4.3251,7.0978 -4.0143,9.2151 0.2768,1.8859 -1.7693,1.9618 -2.5632,0.095 -0.82,-1.928 -9.188,5.8828 -9.5174,8.8837 -0.3591,3.2718 -4.3505,10.0875 -8.9552,15.292 -4.0253,4.5496 -12.5274,17.7065 -12.5274,19.386 0,2.2719 3,1.0146 4.5,-1.886 2.0216,-3.9094 2.5933,-3.8121 1.4302,0.2434 -0.5116,1.7838 -0.9302,3.3433 -0.9302,3.4655 0,0.1221 -1.368,1.6216 -3.0401,3.3321 -1.672,1.7105 -3.2983,4.4011 -3.6139,5.9793 -0.3157,1.5781 -2.3226,4.4872 -4.4599,6.4648 -2.1374,1.9775 -3.8861,4.0273 -3.8861,4.5552 0,0.5278 -0.4256,0.9597 -0.9457,0.9597 -1.0608,0 4.8018,-10.7842 8.5259,-15.6833 1.3309,-1.7508 2.4198,-3.6633 2.4198,-4.25 0,-2.6931 -2.0665,-0.3917 -6.8991,7.6833 -12.352,20.6395 -18.7959,29.9536 -21.2999,30.787 -2.3039,0.7667 -14.8966,14.3584 -21.2751,22.963 -5.7499,7.7566 -8.5259,10.5241 -8.5259,8.5 0,-0.8627 -0.3838,-0.9378 -1.25,-0.2449 -3.1037,2.4831 -5.5762,2.3361 -8.9181,-0.5301 z m 31.8505,-45.475 c 30.1258,-30.2057 30.1862,-30.2748 41.2199,-47.1624 6.0774,-9.3018 11.573,-18.5268 12.2126,-20.5 0.6395,-1.9732 2.0003,-4.7821 3.0239,-6.242 1.0237,-1.4599 1.8612,-3.002 1.8612,-3.4268 0,-0.792 -68.5185,67.0784 -76.8076,76.0812 -2.532,2.75 -8.3361,8.606 -12.898,13.0133 -4.5619,4.4073 -8.2944,8.4403 -8.2944,8.9621 0,0.9998 8.0234,9.5246 8.9644,9.5246 0.3013,0 14.1244,-13.6125 30.718,-30.25 z m -38.3514,9.2411 c 3.207,-2.7451 6.1717,-4.9911 6.5883,-4.9911 1.1431,0 14.0807,-12.478 14.0807,-13.5805 0,-1.1617 17.4846,-18.4688 21,-20.7868 2.8104,-1.8532 21.2189,-19.8087 26.0985,-25.4563 4.9834,-5.7678 17.6907,-19.5773 25.7629,-27.9976 12.2089,-12.7353 13.8369,-15.2104 21.2243,-32.2693 3.9084,-9.0252 7.9631,-18.3593 9.0103,-20.7424 2.5439,-5.7891 2.4073,-6.4148 -0.8384,-3.8415 -4.3249,3.429 -23.2343,22.7156 -28.8861,29.4621 -2.8206,3.3671 -5.3469,5.9035 -5.6139,5.6365 -0.6493,-0.6493 -11.6861,11.3247 -12.9059,14.0019 -0.5289,1.1608 -2.4915,3.1588 -4.3613,4.44 -1.8699,1.2813 -5.5298,4.648 -8.1331,7.4817 -11.5489,12.5709 -17.8653,19.1522 -18.3813,19.1522 -0.5704,0 -8.4787,6.0194 -10.726,8.1641 -0.6875,0.6562 -1.25,1.8698 -1.25,2.697 0,0.8273 -0.8625,1.7778 -1.9166,2.1124 -1.0541,0.3346 -4.031,2.9524 -6.6153,5.8174 -5.8103,6.4415 -20.6894,22.0299 -33.3611,34.9513 l -9.554,9.7422 5.4393,5.5078 c 2.9917,3.0293 5.9048,5.5038 6.4736,5.4989 0.5687,0 3.658,-2.2549 6.8651,-5 z m -3.3848,-0.2987 c 1.8954,-2.0308 3.6378,-3.6924 3.872,-3.6924 1.0479,0 -2.7058,4.5039 -4.8915,5.8691 -1.8519,1.1567 -1.6104,0.6411 1.0195,-2.1767 z m 14.0538,-14.1924 c 2.9874,-3.025 5.6567,-5.5 5.9317,-5.5 0.275,0 -1.9443,2.475 -4.9317,5.5 -2.9874,3.025 -5.6567,5.5 -5.9317,5.5 -0.275,0 1.9443,-2.475 4.9317,-5.5 z m 23,-44.5 c 0,-0.55 0.4766,-1 1.059,-1 0.5825,0 0.7809,0.45 0.441,1 -0.3399,0.55 -0.8165,1 -1.059,1 -0.2425,0 -0.441,-0.45 -0.441,-1 z m 29.4318,-6 c 7.6889,-8.8133 28.7297,-30.3011 35.2303,-35.9788 3.2076,-2.8016 -2.2345,3.1734 -18.2178,20.0016 -6.0193,6.3376 -13.193,13.5376 -15.9414,16 l -4.9971,4.4772 z m -9.4398,-26.457 c 42.9554,-42.8764 78.9286,-79.3264 79.9404,-81 1.0117,-1.6737 2.1517,-4.168 2.5331,-5.543 0.3814,-1.375 1.313,-3.8764 2.0702,-5.5587 0.7571,-1.6823 1.7873,-5.5073 2.2893,-8.5 0.502,-2.9927 1.2335,-6.3413 1.6255,-7.4413 l 0.7128,-2 -1.5902,2 c -3.0387,3.8219 -10.9484,11.5 -11.847,11.5 -0.4971,0 0.2796,-1.4065 1.7261,-3.1256 1.4465,-1.7191 2.399,-3.3566 2.1166,-3.639 -0.5093,-0.5093 -7.524,6.9165 -12.774,13.5228 -2.8301,3.5612 -11.0152,11.7092 -21.3385,21.2418 -6.7191,6.2044 -17.2859,17.3868 -22.4424,23.75 -1.8942,2.3375 -3.9771,4.25 -4.6286,4.25 -1.4446,0 -10.7835,10.0864 -13.8789,14.9898 -1.2352,1.9567 -3.9919,4.7785 -6.1261,6.2709 -2.1341,1.4923 -8.1553,7.4409 -13.3803,13.219 -5.225,5.7782 -9.95,10.5297 -10.5,10.5589 -1.7161,0.091 -13.0841,10.9559 -11.5,10.9908 0.825,0.018 -0.1315,1.0368 -2.1256,2.2637 -1.9942,1.2269 -6.2986,5.1504 -9.5656,8.7188 -3.2669,3.5684 -7.9354,8.5346 -10.3743,11.036 -2.439,2.5013 -10.005,10.2543 -16.8133,17.2289 -12.014,12.3071 -12.334,12.7479 -10.8562,14.952 1.8053,2.6926 7.8886,8.9384 8.3231,8.5454 0.1668,-0.1508 35.4486,-35.3549 78.4039,-78.2312 z m -5.3932,-28.043 c 48.8238,-48.4 90.2462,-89.4844 92.0497,-91.2986 1.8634,-1.8745 3.4838,-4.6808 3.7531,-6.5 0.2607,-1.7608 0.9663,-6.5247 1.568,-10.5864 0.6016,-4.0617 0.8496,-7.6292 0.551,-7.9278 -0.7812,-0.7812 -146.0828,144.591 -147.6376,147.7092 -4.6658,9.3577 -29.0095,43.9108 -37.3463,53.0089 -14.0268,15.3077 8.7969,-6.8195 87.0621,-84.4053 z m -26.961,-3.6652 c 3.5941,-4.3092 6.9145,-7.8348 7.3787,-7.8348 1.224,0 13.9717,-13.2991 13.9781,-14.5827 0.01,-1.2782 7.4114,-7.4173 8.9468,-7.4173 0.5822,0 1.0715,-0.5625 1.0872,-1.25 0.016,-0.6875 4.0611,-5.525 8.9896,-10.75 4.9285,-5.225 8.9657,-9.8375 8.9714,-10.25 0.01,-0.4125 0.5729,-0.7564 1.2604,-0.7642 1.5528,-0.018 12.75,-9.79 12.75,-11.1277 0,-0.5369 -0.45,-0.6981 -1,-0.3581 -0.55,0.3399 -1,0.3875 -1,0.1059 0,-0.2817 1.5344,-1.2402 3.4098,-2.1302 1.8754,-0.8899 6.2367,-4.6235 9.6918,-8.2969 3.4552,-3.6734 16.6962,-17.2538 29.4245,-30.1788 l 23.1425,-23.50003 0.6657,-6.3967 c 0.9005,-8.6523 0.8137,-15.3215 -0.2206,-16.9536 -0.6359,-1.0035 -3.0077,0.9073 -9.2347,7.4398 -4.6084,4.8345 -12.9596,13.5527 -18.5582,19.3737 -5.5985,5.821 -11.4485,12.14803 -13,14.06023 -1.5514,1.9121 -5.9708,6.6689 -9.8208,10.5707 -3.85,3.9019 -8.0461,8.4019 -9.3248,10 -1.2786,1.5982 -1.9976,2.2309 -1.5979,1.4059 0.3998,-0.825 1.4032,-2.2875 2.2298,-3.25 0.8266,-0.9625 1.0382,-1.75 0.4703,-1.75 -0.5679,0 -1.6158,0.7028 -2.3288,1.5619 -0.713,0.8591 -3.6734,3.1398 -6.5788,5.0683 -2.9053,1.9284 -6.7032,5.1631 -8.4398,7.188 -8.8709,10.3445 -14.7825,16.578 -18.0167,18.998 -12.0013,8.98 -27.4122,26.1241 -21.414,23.8224 1.1209,-0.4301 0.6707,0.5426 -1.2788,2.763 -1.6548,1.8847 -3.5663,5.1163 -4.2478,7.1812 -0.6815,2.0649 -2.145,5.2897 -3.2522,7.1664 -1.1073,1.8766 -2.1359,4.53 -2.2859,5.8963 -0.392,3.5706 -5.6895,15.353 -6.9071,15.3623 -1.2653,0.01 -3.5275,4.7 -3.5275,7.314 0,2.6162 1.4195,1.3662 9.6378,-8.487 z m 55.8622,-78.8348 c 2.7087,-2.75 5.1498,-5 5.4248,-5 0.275,0 -1.7161,2.25 -4.4248,5 -2.7086,2.75 -5.1498,5 -5.4248,5 -0.275,0 1.7162,-2.25 4.4248,-5 z m 42.4062,-55.53153 c 20.7399,-20.9325 31.1279,-32.12746 31.9198,-34.39922 2.4549,-7.04218 0.5369,-18.6477 -2.7465,-16.61845 -0.5795,0.35814 -2.4528,2.68483 -4.1629,5.17041 -1.7102,2.48559 -3.3632,4.26539 -3.6735,3.95511 -0.3103,-0.31028 0.2553,-1.46966 1.2569,-2.5764 2.6772,-2.9583 1.2514,-3.42868 -1.5037,-0.49606 -1.2897,1.37283 -3.054,2.50925 -3.9206,2.52537 -1.8462,0.0344 -6.7448,4.30383 -9.7694,8.51468 -2.8041,3.90397 -11.0664,12.45496 -12.0395,12.46006 -1.5179,0.01 -19.2668,17.9499 -19.2668,19.4763 0,0.8594 -1.0125,2.0371 -2.25,2.6171 -1.2375,0.58 -3.375,2.5637 -4.75,4.4083 -3.0767,4.1275 -26.1981,29.55783 -31,34.09583 -16.8215,15.897 -19.0003,18.3119 -19.0153,21.0755 -0.01,1.8487 -0.2973,2.3785 -0.8324,1.5351 -1.0824,-1.706 -2.9239,6.9003 -3.6991,17.2879 l -0.5971,8 27.6522,-28 c 15.2087,-15.4 41.4878,-41.96423 58.3979,-59.03153 z m -40.8502,18.96453 c 7.4523,-8.55183 17.3062,-18.92033 19.7108,-20.74023 l 2.7332,-2.0685 -2.5,2.8947 c -1.375,1.5921 -3.4803,3.709 -4.6786,4.7042 -1.1982,0.9953 -3.0972,3.2647 -4.2201,5.0431 -1.1229,1.7785 -4.6425,5.4535 -7.8214,8.1667 -3.179,2.71323 -4.6297,3.61323 -3.2239,2.00003 z m 53.444,-52.43308 c 0.9955,-1.1 2.035,-2 2.31,-2 0.275,0 -0.3145,0.9 -1.31,2 -0.9955,1.1 -2.035,2 -2.31,2 -0.275,0 0.3145,-0.9 1.31,-2 z m 8.5,88.81298 c 0,-1.8191 -1.635,-0.576 -3.8794,2.9494 l -2.3795,3.7377 3.1295,-2.9371 c 1.7212,-1.6154 3.1294,-3.3029 3.1294,-3.75 z m -41.1231,-68.29603 c 12.8573,-12.6593 24.3323,-24.12768 25.5,-25.48524 1.1677,-1.35755 5.7349,-6.30755 10.1494,-11 16.6732,-17.72318 16.1036,-16.86063 15.0041,-22.72144 -0.617,-3.28895 -0.7532,-3.39628 -2.1103,-1.66306 -1.3612,1.73835 -1.4183,1.69837 -0.9255,-0.64721 1.7175,-8.17396 -0.01,-6.59682 -72.3468,66.22625 -25.0424,25.2092 -30.2389,30.91133 -29.7046,32.59473 0.3561,1.1221 -0.048,4.7239 -0.8978,8.004 -0.85,3.2801 -1.5454,7.006 -1.5454,8.2799 0,2.4445 -0.7382,3.14 56.8769,-53.58793 z m -52.8072,17.2145 c 0.5971,-3.6135 0.8071,-3.899 1.4383,-1.955 0.6648,2.0477 5.3737,-2.3186 46.8656,-43.45676 25.3695,-25.15324 46.9651,-47.00113 47.9901,-48.55088 1.7963,-2.71592 1.802,-3.16003 0.1576,-12.29326 -0.9384,-5.21155 -1.9716,-9.47555 -2.296,-9.47555 -0.8749,0 -15.0537,14.94795 -18.0223,19 -1.4103,1.925 -4.6204,5.56 -7.1336,8.07779 -2.5132,2.51778 -5.3748,5.66778 -6.3591,7 l -1.7897,2.42221 0.6726,-2.5 c 0.632,-2.34898 0.5589,-2.40678 -1.2103,-0.95687 -1.0356,0.84872 -3.1552,2.18091 -4.7103,2.96041 -1.5551,0.77951 -6.4693,5.57675 -10.9205,10.66055 -4.4511,5.08379 -8.3808,9.06535 -8.7327,8.8479 -0.7596,-0.46948 -18.5106,16.81178 -25.2261,24.55851 -10.4606,12.06705 -11.7933,13.70515 -11.7933,14.49535 0,0.4528 5.4462,-4.7767 12.1027,-11.62125 6.6565,-6.84453 10.9902,-10.8696 9.6304,-8.9446 -1.3598,1.925 -4.4435,5.58588 -6.8527,8.13529 -8.7407,9.24936 -12.3928,13.91156 -13.0121,16.61116 -0.3474,1.5145 -0.6849,1.9661 -0.75,1.0036 -0.065,-0.9625 -0.6078,-1.75 -1.2062,-1.75 -0.6993,0 -0.8692,1.3395 -0.4757,3.75 0.3368,2.0625 0.1673,5.2663 -0.3765,7.1195 -0.9585,3.2662 -0.3358,12.7397 0.765,11.6389 0.3001,-0.3001 0.8602,-2.4497 1.2448,-4.777 z m 49.9303,-69.04436 c 0,-0.1721 1.4625,-1.6346 3.25,-3.25 l 3.25,-2.93709 -2.9371,3.25 c -2.7378,3.02945 -3.5629,3.70965 -3.5629,2.93709 z m -24.8983,12.06291 c 12.9758,-12.7875 33.3785,-33.35722 45.3395,-45.71049 l 21.7471,-22.46049 -0.6347,-4.03951 c -0.3491,-2.22173 -1.0905,-5.75188 -1.6476,-7.84478 l -1.0128,-3.80527 -5.5506,5.55053 c -3.0528,3.05279 -6.7146,6.11516 -8.1374,6.80527 -1.4229,0.6901 -4.1886,3.51338 -6.1461,6.27393 -1.9575,2.76056 -18.2966,19.81371 -36.3091,37.89589 l -32.75,32.87669 v 7.27232 c 0,5.97685 0.5818,10.43591 1.3617,10.43591 0.081,0 10.7643,-10.4625 23.74,-23.25 z m 3.7798,-36 c 16.335,-16.0875 31.4182,-31.15878 33.5182,-33.49172 2.0999,-2.33295 4.2287,-3.98795 4.7306,-3.67777 0.5019,0.31017 2.3654,-1.11844 4.1411,-3.1747 1.7757,-2.05625 5.7872,-6.60226 8.9144,-10.10224 l 5.6858,-6.36359 -1.8381,-5.21999 c -1.0109,-2.871 -2.5884,-6.96817 -3.5055,-9.10482 l -1.6675,-3.88484 -3.6802,3.47527 c -2.0242,1.9114 -4.8306,4.55957 -6.2366,5.88483 -1.406,1.32526 -4.4434,4.88457 -6.7498,7.90957 -4.3818,5.74706 -12.9689,15.41489 -11.7688,13.25 1.872,-3.37701 -1.7816,-0.11532 -9.9251,8.86031 -4.95,5.45584 -16.7248,17.67546 -26.1662,27.1547 l -17.1661,17.23499 -0.082,10.25 c -0.054,6.77462 0.2872,10.25 1.0069,10.25 0.5989,0 14.4539,-13.1625 30.7889,-29.25 z m 7.324,-42.53317 39.9189,-39.78318 -2.4623,-6.78362 c -2.9068,-8.00799 -3.4327,-8.68417 -5.0426,-6.48262 -0.6693,0.91535 -3.4881,4.12684 -6.264,7.13665 -2.7759,3.00981 -7.135,8.11019 -9.6869,11.33416 -2.5518,3.22398 -9.258,10.13678 -14.9027,15.36178 -5.6446,5.225 -12.2832,11.75 -14.7524,14.5 -6.6825,7.44233 -14.969,15.31336 -19.7635,18.77263 -2.3375,1.68652 -4.25,3.37013 -4.25,3.74135 0,0.37122 -1.1256,1.98243 -2.5014,3.58048 -3.5495,4.12309 -5.7928,9.24042 -4.921,11.22553 0.4058,0.924 0.6365,2.28884 0.5127,3.03297 -0.3789,2.2761 0.7588,4.14704 2.5216,4.14704 0.9211,0 19.6382,-17.90243 41.5936,-39.78317 z m -45.2055,14.28317 c 0.6847,-0.825 1.9016,-1.5 2.7042,-1.5 2.2478,0 10.1067,-6.86474 13.4923,-11.78557 3.3521,-4.87212 36.2834,-38.21443 37.7433,-38.21443 1.1123,0 22.0602,-23.47341 22.0602,-24.71979 0,-0.4854 -1.8352,-3.70691 -4.0783,-7.15891 l -4.0783,-6.27637 -6.1717,5.7717 c -3.3944,3.17444 -10.7477,10.29683 -16.3407,15.82754 -5.5929,5.5307 -11.9969,11.85583 -14.231,14.05583 -2.234,2.2 -11.7057,11.87635 -21.048,21.503 l -16.9861,17.503 1.4231,3.997 c 0.7828,2.19835 1.443,5.19769 1.4671,6.66521 0.089,5.38907 1.718,7.13437 4.0439,4.33179 z m 9.3051,-43.96093 c 9.6812,-9.60352 17.3499,-16.80352 17.0415,-16 -1.1282,2.94009 0.7033,1.28361 7.5063,-6.78907 3.8238,-4.5375 12.1344,-13.57023 18.4679,-20.07274 l 11.5156,-11.82273 -4.1106,-6.67727 c -2.2609,-3.67249 -4.2887,-6.90226 -4.5062,-7.17726 -0.2176,-0.275 -3.5087,2.7625 -7.3136,6.75 -3.8049,3.9875 -7.3424,7.25 -7.8611,7.25 -0.5187,0 -2.1444,1.575 -3.6127,3.5 -1.4683,1.925 -3.2288,3.5 -3.9124,3.5 -1.9409,0 -31.9946,31.75332 -33.7963,35.70751 -0.5745,1.26087 -1.4066,2.29249 -1.8492,2.29249 -1.4525,0 -7.8743,6.17548 -7.8743,7.57221 0,0.75076 -0.6029,1.13366 -1.3398,0.85089 -2.6793,-1.02817 -3.7347,1.96249 -2.174,6.16097 0.8006,2.15376 1.936,5.82843 2.5232,8.16593 0.5873,2.3375 1.6585,4.25 2.3806,4.25 0.7221,0 9.2339,-7.85742 18.9151,-17.46093 z m -11.1827,-24.14624 c 15.774,-15.9951 19.3769,-19.50594 35.8548,-34.93829 4.1376,-3.875 9.8647,-9.275 12.727,-12 l 5.2042,-4.95454 -3.9858,-6.72157 -3.9857,-6.72156 -19.3407,19.22156 c -10.6373,10.57186 -22.2106,21.98342 -25.7184,25.35902 -3.5078,3.3756 -10.1453,10.22773 -14.7501,15.22696 l -8.3723,9.08951 2.7723,6.52304 c 1.5248,3.58767 2.8724,6.52304 2.9947,6.52304 0.1223,0 7.5922,-7.47323 16.6,-16.60717 z m -16.3787,-15.14283 c 4.7593,-5.0875 9.4251,-9.25 10.3685,-9.25 0.9434,0 5.4612,-4.3875 10.0395,-9.75 8.8312,-10.34387 31.5357,-33.25 32.9573,-33.25 0.4647,0 1.5604,-1.09191 2.4348,-2.42647 1.4941,-2.28022 1.4258,-2.7615 -1.1321,-7.98538 -5.1763,-10.57137 -4.4009,-10.75691 -20.639,4.93889 -7.85,7.5878 -14.8607,14.62331 -15.5794,15.63448 -0.7187,1.01116 -1.936,1.83848 -2.7052,1.83848 -0.7692,0 -4.0062,2.78359 -7.1933,6.18575 -3.1871,3.40217 -8.7543,9.13967 -12.3716,12.75 -7.6102,7.59571 -14.9232,17.05259 -14.9232,19.29813 0,0.85368 0.6171,1.78894 1.3713,2.07837 0.7543,0.28942 1.6698,1.80006 2.0345,3.35698 0.3647,1.55692 1.1422,4.04421 1.7278,5.52731 0.9287,2.35199 1.3134,2.54365 3.0109,1.5 1.0704,-0.6581 5.84,-5.35904 10.5992,-10.44654 z m -9.6208,-26.0464 c 7.9074,-8.13802 19.5521,-19.47216 25.8771,-25.18698 12.1622,-10.98888 27,-25.85116 27,-27.04451 0,-0.39097 -1.8566,-3.04272 -4.1259,-5.89278 l -4.1259,-5.18193 -26.1241,25.72975 c -14.3682,14.15136 -29.4951,29.02406 -33.6152,33.05044 -6.7061,6.55362 -7.3627,7.52621 -6.2662,9.28202 0.6737,1.07873 0.9502,2.67701 0.6146,3.55174 -0.6594,1.71826 3.1562,6.48865 5.1899,6.48865 0.6593,0 7.6683,-6.65838 15.5757,-14.7964 z m -21.5787,-9.7036 c 2.5843,-3.025 5.2234,-5.5 5.8647,-5.5 1.4458,0 13.9444,-13.06564 17.1896,-17.96944 1.3139,-1.98553 4.5928,-5.2907 7.2864,-7.34483 4.2759,-3.26083 12.1783,-11.43423 25.5262,-26.40137 l 3.7595,-4.21563 -3.0733,-3.78437 c -1.6904,-2.0814 -3.8829,-4.84008 -4.8723,-6.13041 l -1.799,-2.34605 -8.463,8.72516 c -4.6546,4.79884 -10.488,10.57846 -12.963,12.8436 -2.475,2.26513 -6.6007,6.25703 -9.1683,8.87088 -2.5676,2.61385 -5.1551,4.75246 -5.75,4.75246 -0.5949,0 -1.8692,0.81374 -2.8317,1.8083 -6.3884,6.60131 -25.7955,27.55412 -26.0026,28.07365 -0.139,0.3486 1.3092,2.43027 3.2182,4.62593 1.909,2.19567 3.9897,5.22962 4.6239,6.74212 0.6343,1.5125 1.5138,2.75 1.9545,2.75 0.4408,0 2.9158,-2.475 5.5002,-5.5 z M 991.30289,1255.6744 c -1.1451,-2.2329 -1.1183,-2.2597 0.6095,-0.6095 0.994,0.9495 1.533,2.0005 1.1978,2.3357 -0.3352,0.3352 -1.1485,-0.4416 -1.8073,-1.7262 z m 872.00001,0.3287 c 0.6588,-1.2846 1.4721,-2.0614 1.8073,-1.7262 0.3352,0.3352 -0.2038,1.3863 -1.1978,2.3357 -1.7278,1.6502 -1.7546,1.6234 -0.6095,-0.6095 z m -900.92771,-35.2163 c -2.7701,-3.3285 -5.0365,-6.6879 -5.0365,-7.4652 0,-0.7773 -1.2683,-2.8914 -2.8185,-4.698 -2.921,-3.4042 -5.8249,-9.4747 -4.9507,-10.349 0.275,-0.275 1.0652,0.8645 1.7559,2.5321 0.6908,1.6676 1.5779,3.0321 1.9714,3.0321 0.83,0 8.5498,11.3133 12.4533,18.25 1.4701,2.6125 2.4454,4.75 2.1672,4.75 -0.2781,0 -2.7721,-2.7234 -5.5421,-6.052 z m 949.52781,-33.2412 c 0.3755,-0.9862 0.9347,-1.5412 1.2426,-1.2333 0.3079,0.3079 6e-4,1.1148 -0.6828,1.7931 -0.9876,0.9803 -1.1025,0.8654 -0.5598,-0.5598 z m 14.1223,-15.4568 c 0.3432,-0.9625 1.0001,-2.2414 1.46,-2.8421 0.4598,-0.6006 0.5737,-1.3543 0.2531,-1.6749 -0.3207,-0.3207 -0.058,-1.4043 0.5842,-2.408 1.0386,-1.6242 1.1072,-1.6324 0.623,-0.075 -0.2993,0.9625 -0.1234,1.75 0.3908,1.75 0.5142,0 0.01,1.575 -1.1302,3.5 -2.2342,3.7867 -3.1765,4.5428 -2.1809,1.75 z m -998.10901,-1.772 c -1.1106,-1.695 -1.3576,-3.0487 -0.7534,-4.1284 1.0518,-1.8795 1.6785,-1.0716 2.6377,3.4004 0.8375,3.905 0.3267,4.1024 -1.8843,0.728 z M 1833.9623,811.30006 c -0.965,-2.5147 -0.6804,-3.16356 0.4985,-1.13634 0.5837,1.00375 0.8506,2.03566 0.5931,2.29313 -0.2575,0.25747 -0.7487,-0.26309 -1.0916,-1.15679 z m 68.2489,-102.21134 c -1.2439,-1.58606 -1.2085,-1.62143 0.3775,-0.37756 1.6658,1.30637 2.1955,2.12756 1.3725,2.12756 -0.2077,0 -0.9952,-0.7875 -1.75,-1.75 z m -120.8725,-7.62756 c 0,-0.20765 0.7875,-0.99515 1.75,-1.75 1.5861,-1.24387 1.6214,-1.2085 0.3776,0.37756 -1.3064,1.66575 -2.1276,2.19548 -2.1276,1.37244 z m -709.921,-3.30505 c -0.043,-0.65044 -0.9287,-1.4523 -1.9672,-1.78192 -1.5787,-0.50106 -4.3494,-3.87186 -8.3534,-10.16274 -0.4234,-0.66514 -0.079,-1.41938 0.8019,-1.75751 0.962,-0.36914 1.2896,-0.18141 0.8696,0.49822 -0.3757,0.60787 2.1463,3.75839 5.6981,7.11825 3.5046,3.31524 5.8479,5.74154 5.2074,5.39178 -0.6405,-0.34976 -1.3925,-0.0706 -1.671,0.6203 -0.3566,0.88439 -0.5299,0.90618 -0.5854,0.0736 z m 713.3496,-2.31739 c 0,-1.1 0.4958,-2 1.1017,-2 1.6013,0 7.4697,-6.9107 7.4697,-8.79639 0,-1.18613 0.2924,-1.31126 1.123,-0.48066 1.2041,1.20417 -1.0379,5.15694 -5.971,10.52705 -3.0075,3.27402 -3.7234,3.41822 -3.7234,0.75 z m 17.0714,-15 c 0.9955,-1.1 2.035,-2 2.31,-2 0.275,0 -0.3145,0.9 -1.31,2 -0.9955,1.1 -2.035,2 -2.31,2 -0.275,0 0.3145,-0.9 1.31,-2 z m 0,-5 c 0.9955,-1.1 2.035,-2 2.31,-2 0.275,0 -0.3145,0.9 -1.31,2 -0.9955,1.1 -2.035,2 -2.31,2 -0.275,0 0.3145,-0.9 1.31,-2 z"
       id="path1"
       inkscape:export-filename="photo-ornament.png"
       inkscape:export-xdpi="96"
       inkscape:export-ydpi="96" /></g></svg>
